# xmcd
#
# Track frame offsets: 
#        150
#        32953
#        82607
#        115659
#        145059
#        185956
#        220220
#        257509
#        310091
#
# Disc length: 4753 seconds
#
# Revision: 1
# Processed by: cddbd v1.5.2PL0 Copyright (c) Steve Scherf et al.
# Submitted via: ExactAudioCopy v1.1
#
DISCID=75128f09
DTITLE=Various Artist - The Legacy Of Disco - Disc 1
DYEAR=2016
DGENRE=Disco
TTITLE0=MFSB - Love Is The Message (Danny Krivit Edit)
TTITLE1=Harold Melvin and The Blue Notes - Don't Leave Me This Way (Tom 
TTITLE1=Moulton Mix)
TTITLE2=The Trammps - Love Epidemic (DJ Reverend P Edit)
TTITLE3=Jean Carn - Was That All It Was (78rpm Version)
TTITLE4=Archie Bell and The Drells - Where Will You Go When The Party Is
TTITLE4=Over (Tom Moulton Mix)
TTITLE5=The Jacksons - Walk Right Now (12'' John Luongo Disco Mix)
TTITLE6=Earth, Wind and Fire - Boogie Wonderland (12'' Version)
TTITLE7=New York Community Choir - Express Yourself (David Todd Remix)
TTITLE8=George Duke - I Want You For Myself (Tom Moulton Mix)
EXTD=
EXTT0=
EXTT1=
EXTT2=
EXTT3=
EXTT4=
EXTT5=
EXTT6=
EXTT7=
EXTT8=
PLAYORDER=
